# xmcd CD database file
# Copyright (C) 1996 Ti Kan
#
# Track frame offsets:
#	150
#	12724
#	27827
#	42507
#	52866
#	64570
#	78575
#	94253
#	109634
#	128254
#	158012
#	166789
#	183505
#	202011
# Disc length: 2760 seconds
#
# Revision: 1
# Processed by: cddbd v1.4b41PL3 Copyright (c) Steve Scherf et al.
# Submitted via: CDCOPY 4.900
#
DISCID=ac0ac60e
DTITLE=Devil In A Woodpile - Division Street
DYEAR=1900
DGENRE=
TTITLE0=Big Boat
TTITLE1=I Shall Not Be Moved
TTITLE2=I'm A Steady Rollin' Man
TTITLE3=Before They Get Me Down
TTITLE4=Wrong Woman
TTITLE5=Lepidoptera
TTITLE6=My Baby Leavin'
TTITLE7=Walkin' In The Rain
TTITLE8=Wake Up Baby
TTITLE9=I Feel Like Steppin' Out
TTITLE10=See Happy Song
TTITLE11=Samson and Delilah
TTITLE12=Manifold
TTITLE13=Devil In The Woodpile
EXTD=
EXTT0=
EXTT1=
EXTT2=
EXTT3=
EXTT4=
EXTT5=
EXTT6=
EXTT7=
EXTT8=
EXTT9=
EXTT10=
EXTT11=
EXTT12=
EXTT13=
PLAYORDER=
